<svg xmlns="http://www.w3.org/2000/svg" xmlns:xlink="http://www.w3.org/1999/xlink" contentStyleType="text/css" data-diagram-type="SEQUENCE" height="737.49px" preserveAspectRatio="none" style="width:1099px;height:737px;background:#FFFFFF;" version="1.1" viewBox="0 0 1099 737" width="1099.22px" zoomAndPan="magnify"><defs/><g><g><title>cmd.AddCommand</title><rect fill="#FFFFFF" height="612.3051" style="stroke:#000000;stroke-width:0.61;" width="6.1" x="102.4508" y="70.0365"/></g><g><title>AddCommand.addModule..</title><rect fill="#FFFFFF" height="594.1275" style="stroke:#000000;stroke-width:0.61;" width="6.1" x="288.1693" y="88.2141"/></g><g><title>allModulesData.Map</title><rect fill="#FFFFFF" height="18.1776" style="stroke:#000000;stroke-width:0.61;" width="6.1" x="439.7349" y="132.0206"/></g><g><title>allModulesData.Map</title><rect fill="#FFFFFF" height="8.54" style="stroke:#000000;stroke-width:0.61;" width="6.1" x="439.7349" y="234.9861"/></g><g><title>tt.Timetable</title><rect fill="#FFFFFF" height="180.4245" style="stroke:#000000;stroke-width:0.61;" width="6.1" x="536.2668" y="411.9954"/></g><g><title>retriever.ModuleRetriever</title><rect fill="#FFFFFF" height="87.5752" style="stroke:#000000;stroke-width:0.61;" width="6.1" x="644.8457" y="183.5034"/></g><rect fill="#FFFFFF" height="235.0796" style="stroke:#000000;stroke-width:0.61;" width="841.8402" x="9.15" y="159.3482"/><rect fill="#FFFFFF" height="197.5045" style="stroke:#000000;stroke-width:0.61;" width="829.6402" x="15.25" y="192.6534"/><rect fill="#FFFFFF" height="141.7517" style="stroke:none;stroke-width:0.61;" width="829.6402" x="15.25" y="248.4061"/><rect fill="#FFFFFF" height="206.6634" style="stroke:#000000;stroke-width:0.61;" width="1080.0655" x="15.25" y="452.6206"/><rect fill="#FFFFFF" height="89.5366" style="stroke:none;stroke-width:0.61;" width="1080.0655" x="15.25" y="569.7474"/><g><title>caller</title><rect fill="#000000" fill-opacity="0.00000" height="637.1927" width="4.88" x="32.2386" y="50.6389"/><line style="stroke:#000000;stroke-width:0.61;stroke-dasharray:0.61,0.61;" x1="34.16" x2="34.16" y1="50.6389" y2="687.8316"/></g><g><title>cmd.AddCommand</title><rect fill="#000000" fill-opacity="0.00000" height="637.1927" width="4.88" x="103.0608" y="50.6389"/><line style="stroke:#000000;stroke-width:0.61;stroke-dasharray:0.61,0.61;" x1="105.3471" x2="105.3471" y1="50.6389" y2="687.8316"/></g><g><title>AddCommand.addModule..</title><rect fill="#000000" fill-opacity="0.00000" height="637.1927" width="4.88" x="288.7793" y="50.6389"/><line style="stroke:#000000;stroke-width:0.61;stroke-dasharray:0.61,0.61;" x1="291.1481" x2="291.1481" y1="50.6389" y2="687.8316"/></g><g><title>allModulesData.Map</title><rect fill="#000000" fill-opacity="0.00000" height="637.1927" width="4.88" x="440.3449" y="50.6389"/><line style="stroke:#000000;stroke-width:0.61;stroke-dasharray:0.61,0.61;" x1="442.2199" x2="442.2199" y1="50.6389" y2="687.8316"/></g><g><title>tt.Timetable</title><rect fill="#000000" fill-opacity="0.00000" height="637.1927" width="4.88" x="536.8768" y="50.6389"/><line style="stroke:#000000;stroke-width:0.61;stroke-dasharray:0.61,0.61;" x1="539.12" x2="539.12" y1="50.6389" y2="687.8316"/></g><g><title>retriever.ModuleRetriever</title><rect fill="#000000" fill-opacity="0.00000" height="575.823" width="4.88" x="645.4557" y="112.0086"/><line style="stroke:#000000;stroke-width:0.61;stroke-dasharray:0.61,0.61;" x1="647.4837" x2="647.4837" y1="112.0086" y2="687.8316"/></g><g><title>result.CommandResult</title><rect fill="#000000" fill-opacity="0.00000" height="322.5658" width="4.88" x="776.7939" y="365.2658"/><line style="stroke:#000000;stroke-width:0.61;stroke-dasharray:0.61,0.61;" x1="778.8476" x2="778.8476" y1="365.2658" y2="687.8316"/></g><g><title>result.CommandResult</title><rect fill="#000000" fill-opacity="0.00000" height="142.9762" width="4.88" x="902.0065" y="544.8554"/><line style="stroke:#000000;stroke-width:0.61;stroke-dasharray:0.61,0.61;" x1="904.0602" x2="904.0602" y1="544.8554" y2="687.8316"/></g><g><title>result.CommandResult</title><rect fill="#000000" fill-opacity="0.00000" height="53.4396" width="4.88" x="1027.2192" y="634.392"/><line style="stroke:#000000;stroke-width:0.61;stroke-dasharray:0.61,0.61;" x1="1029.2728" x2="1029.2728" y1="634.392" y2="687.8316"/></g><g class="participant participant-head" data-participant="Caller"><text fill="#000000" font-family="Verdana" font-size="8.54" lengthAdjust="spacing" textLength="22.9971" x="21.35" y="48.8459">caller</text><ellipse cx="34.6786" cy="8.54" fill="#FFFFFF" rx="4.88" ry="4.88" style="stroke:#000000;stroke-width:0.61;"/><path d="M34.6786,13.42 L34.6786,29.89 M26.7486,18.3 L42.6086,18.3 M34.6786,29.89 L26.7486,39.04 M34.6786,29.89 L42.6086,39.04" fill="none" style="stroke:#000000;stroke-width:0.61;"/></g><g class="participant participant-tail" data-participant="Caller"><text fill="#000000" font-family="Verdana" font-size="8.54" lengthAdjust="spacing" textLength="22.9971" x="21.35" y="695.8075">caller</text><ellipse cx="34.6786" cy="703.0905" fill="#FFFFFF" rx="4.88" ry="4.88" style="stroke:#000000;stroke-width:0.61;"/><path d="M34.6786,707.9705 L34.6786,724.4405 M26.7486,712.8505 L42.6086,712.8505 M34.6786,724.4405 L26.7486,733.5905 M34.6786,724.4405 L42.6086,733.5905" fill="none" style="stroke:#000000;stroke-width:0.61;"/></g><g class="participant participant-head" data-participant="AddCmd"><rect fill="#90EE90" height="18.9189" rx="1.525" ry="1.525" style="stroke:#000000;stroke-width:0.61;" width="90.5874" x="60.2071" y="31.11"/><text fill="#000000" font-family="Verdana" font-size="8.54" lengthAdjust="spacing" textLength="82.0474" x="64.4771" y="43.9659">cmd:AddCommand</text></g><g class="participant participant-tail" data-participant="AddCmd"><rect fill="#90EE90" height="18.9189" rx="1.525" ry="1.525" style="stroke:#000000;stroke-width:0.61;" width="90.5874" x="60.2071" y="687.2216"/><text fill="#000000" font-family="Verdana" font-size="8.54" lengthAdjust="spacing" textLength="82.0474" x="64.4771" y="700.0775">cmd:AddCommand</text></g><g class="participant participant-head" data-participant="AddHelper"><rect fill="#90EE90" height="18.9189" rx="1.525" ry="1.525" style="stroke:#000000;stroke-width:0.61;" width="125.8024" x="228.3181" y="31.11"/><text fill="#000000" font-family="Verdana" font-size="8.54" lengthAdjust="spacing" textLength="117.2624" x="232.5881" y="43.9659">AddCommand.addModule()</text></g><g class="participant participant-tail" data-participant="AddHelper"><rect fill="#90EE90" height="18.9189" rx="1.525" ry="1.525" style="stroke:#000000;stroke-width:0.61;" width="125.8024" x="228.3181" y="687.2216"/><text fill="#000000" font-family="Verdana" font-size="8.54" lengthAdjust="spacing" textLength="117.2624" x="232.5881" y="700.0775">AddCommand.addModule()</text></g><g class="participant participant-head" data-participant="Cache"><rect fill="#FFFFFF" height="18.9189" rx="1.525" ry="1.525" style="stroke:#000000;stroke-width:0.61;" width="95.07" x="395.2499" y="31.11"/><text fill="#000000" font-family="Verdana" font-size="8.54" lengthAdjust="spacing" textLength="86.53" x="399.5199" y="43.9659">allModulesData:Map</text></g><g class="participant participant-tail" data-participant="Cache"><rect fill="#FFFFFF" height="18.9189" rx="1.525" ry="1.525" style="stroke:#000000;stroke-width:0.61;" width="95.07" x="395.2499" y="687.2216"/><text fill="#000000" font-family="Verdana" font-size="8.54" lengthAdjust="spacing" textLength="86.53" x="399.5199" y="700.0775">allModulesData:Map</text></g><g class="participant participant-head" data-participant="Timetable"><rect fill="#ADD8E6" height="18.9189" rx="1.525" ry="1.525" style="stroke:#000000;stroke-width:0.61;" width="61.3938" x="508.62" y="31.11"/><text fill="#000000" font-family="Verdana" font-size="8.54" lengthAdjust="spacing" textLength="52.8538" x="512.89" y="43.9659">tt:Timetable</text></g><g class="participant participant-tail" data-participant="Timetable"><rect fill="#ADD8E6" height="18.9189" rx="1.525" ry="1.525" style="stroke:#000000;stroke-width:0.61;" width="61.3938" x="508.62" y="687.2216"/><text fill="#000000" font-family="Verdana" font-size="8.54" lengthAdjust="spacing" textLength="52.8538" x="512.89" y="700.0775">tt:Timetable</text></g><g class="participant participant-tail" data-participant="Retriever"><rect fill="#DDA0DD" height="18.9189" rx="1.525" ry="1.525" style="stroke:#000000;stroke-width:0.61;" width="119.1639" x="588.3137" y="687.2216"/><text fill="#000000" font-family="Verdana" font-size="8.54" lengthAdjust="spacing" textLength="110.6239" x="592.5837" y="700.0775">retriever:ModuleRetriever</text></g><g class="participant participant-tail" data-participant="ResultFail"><rect fill="#FFFFFF" height="18.9189" rx="1.525" ry="1.525" style="stroke:#000000;stroke-width:0.61;" width="106.9126" x="725.7776" y="687.2216"/><text fill="#000000" font-family="Verdana" font-size="8.54" lengthAdjust="spacing" textLength="98.3726" x="730.0476" y="700.0775">result:CommandResult</text></g><g class="participant participant-tail" data-participant="ResultPrereq"><rect fill="#FFFFFF" height="18.9189" rx="1.525" ry="1.525" style="stroke:#000000;stroke-width:0.61;" width="106.9126" x="850.9902" y="687.2216"/><text fill="#000000" font-family="Verdana" font-size="8.54" lengthAdjust="spacing" textLength="98.3726" x="855.2602" y="700.0775">result:CommandResult</text></g><g class="participant participant-tail" data-participant="ResultSuccess"><rect fill="#FFFFFF" height="18.9189" rx="1.525" ry="1.525" style="stroke:#000000;stroke-width:0.61;" width="106.9126" x="976.2028" y="687.2216"/><text fill="#000000" font-family="Verdana" font-size="8.54" lengthAdjust="spacing" textLength="98.3726" x="980.4728" y="700.0775">result:CommandResult</text></g><g><title>cmd.AddCommand</title><rect fill="#FFFFFF" height="612.3051" style="stroke:#000000;stroke-width:0.61;" width="6.1" x="102.4508" y="70.0365"/></g><g><title>AddCommand.addModule..</title><rect fill="#FFFFFF" height="594.1275" style="stroke:#000000;stroke-width:0.61;" width="6.1" x="288.1693" y="88.2141"/></g><g><title>allModulesData.Map</title><rect fill="#FFFFFF" height="18.1776" style="stroke:#000000;stroke-width:0.61;" width="6.1" x="439.7349" y="132.0206"/></g><g><title>allModulesData.Map</title><rect fill="#FFFFFF" height="8.54" style="stroke:#000000;stroke-width:0.61;" width="6.1" x="439.7349" y="234.9861"/></g><g><title>tt.Timetable</title><rect fill="#FFFFFF" height="180.4245" style="stroke:#000000;stroke-width:0.61;" width="6.1" x="536.2668" y="411.9954"/></g><g><title>retriever.ModuleRetriever</title><rect fill="#FFFFFF" height="87.5752" style="stroke:#000000;stroke-width:0.61;" width="6.1" x="644.8457" y="183.5034"/></g><g class="message" data-participant-1="Caller" data-participant-2="AddCmd"><polygon fill="#000000" points="95.1308,67.5965,101.2308,70.0365,95.1308,72.4765,97.5708,70.0365" style="stroke:#000000;stroke-width:0.61;"/><line style="stroke:#000000;stroke-width:0.61;" x1="34.6786" x2="98.7908" y1="70.0365" y2="70.0365"/><text fill="#000000" font-family="Verdana" font-size="7.93" lengthAdjust="spacing" textLength="38.3412" x="38.9486" y="67.1515">execute()</text></g><g class="message" data-participant-1="AddCmd" data-participant-2="AddHelper"><polygon fill="#000000" points="280.8493,85.7741,286.9493,88.2141,280.8493,90.6541,283.2893,88.2141" style="stroke:#000000;stroke-width:0.61;"/><line style="stroke:#000000;stroke-width:0.61;" x1="108.5508" x2="284.5093" y1="88.2141" y2="88.2141"/><text fill="#000000" font-family="Verdana" font-size="7.93" lengthAdjust="spacing" textLength="168.0285" x="112.8208" y="85.3291">addModule(timetable, allModulesData, ...)</text></g><g class="message" data-participant-1="AddHelper" data-participant-2="Retriever"><polygon fill="#000000" points="580.9937,103.9517,587.0937,106.3917,580.9937,108.8317,583.4337,106.3917" style="stroke:#000000;stroke-width:0.61;"/><line style="stroke:#000000;stroke-width:0.61;" x1="294.2693" x2="584.6537" y1="106.3917" y2="106.3917"/><text fill="#000000" font-family="Verdana" font-size="7.93" lengthAdjust="spacing" textLength="35.0732" x="298.5393" y="103.5067">&#171;create&#187;</text></g><rect fill="#DDA0DD" height="18.9189" rx="1.525" ry="1.525" style="stroke:#000000;stroke-width:0.61;" width="119.1639" x="588.3137" y="93.0941"/><text fill="#000000" font-family="Verdana" font-size="8.54" lengthAdjust="spacing" textLength="110.6239" x="592.5837" y="105.95">retriever:ModuleRetriever</text><g class="message" data-participant-1="AddHelper" data-participant-2="Cache"><polygon fill="#000000" points="432.4149,129.5806,438.5149,132.0206,432.4149,134.4606,434.8549,132.0206" style="stroke:#000000;stroke-width:0.61;"/><line style="stroke:#000000;stroke-width:0.61;" x1="294.2693" x2="436.0749" y1="132.0206" y2="132.0206"/><text fill="#000000" font-family="Verdana" font-size="7.93" lengthAdjust="spacing" textLength="69.3914" x="298.5393" y="129.1356">get(moduleCode)</text></g><g class="message" data-participant-1="Cache" data-participant-2="AddHelper"><polygon fill="#000000" points="300.9793,147.7582,294.8793,150.1982,300.9793,152.6382,298.5393,150.1982" style="stroke:#000000;stroke-width:0.61;"/><line style="stroke:#000000;stroke-width:0.61;stroke-dasharray:1.22,1.22;" x1="297.3193" x2="442.1749" y1="150.1982" y2="150.1982"/><text fill="#000000" font-family="Verdana" font-size="7.93" lengthAdjust="spacing" textLength="52.9506" x="304.6393" y="147.3132">module / null</text></g><path d="M9.15,159.3482 L51.2016,159.3482 L51.2016,164.1058 L45.1016,170.2058 L9.15,170.2058 L9.15,159.3482" fill="#FFFFFF" style="stroke:#000000;stroke-width:0.61;"/><rect fill="none" height="235.0796" style="stroke:#000000;stroke-width:0.61;" width="841.8402" x="9.15" y="159.3482"/><text fill="#000000" font-family="Verdana" font-size="7.93" font-weight="bold" lengthAdjust="spacing" textLength="14.6016" x="18.3" y="167.9308">opt</text><text fill="#000000" font-family="Verdana" font-size="6.71" font-weight="bold" lengthAdjust="spacing" textLength="98.2484" x="60.3516" y="167.3142">[module not in local data]</text><g class="message" data-participant-1="AddHelper" data-participant-2="Retriever"><polygon fill="#000000" points="637.5257,181.0634,643.6257,183.5034,637.5257,185.9434,639.9657,183.5034" style="stroke:#000000;stroke-width:0.61;"/><line style="stroke:#000000;stroke-width:0.61;" x1="294.2693" x2="641.1857" y1="183.5034" y2="183.5034"/><text fill="#000000" font-family="Verdana" font-size="7.93" lengthAdjust="spacing" textLength="139.7662" x="298.5393" y="180.6184">getModule(acadYear, moduleCode)</text></g><path d="M15.25,192.6534 L54.3201,192.6534 L54.3201,197.411 L48.2201,203.511 L15.25,203.511 L15.25,192.6534" fill="#FFFFFF" style="stroke:#000000;stroke-width:0.61;"/><rect fill="none" height="197.5045" style="stroke:#000000;stroke-width:0.61;" width="829.6402" x="15.25" y="192.6534"/><text fill="#000000" font-family="Verdana" font-size="7.93" font-weight="bold" lengthAdjust="spacing" textLength="11.6201" x="24.4" y="201.236">alt</text><text fill="#000000" font-family="Verdana" font-size="6.71" font-weight="bold" lengthAdjust="spacing" textLength="59.2072" x="63.4701" y="200.6194">[module found]</text><g class="message" data-participant-1="Retriever" data-participant-2="AddHelper"><polygon fill="#000000" points="300.9793,214.3685,294.8793,216.8085,300.9793,219.2485,298.5393,216.8085" style="stroke:#000000;stroke-width:0.61;"/><line style="stroke:#000000;stroke-width:0.61;stroke-dasharray:1.22,1.22;" x1="297.3193" x2="644.2357" y1="216.8085" y2="216.8085"/><text fill="#000000" font-family="Verdana" font-size="7.93" lengthAdjust="spacing" textLength="29.3851" x="304.6393" y="213.9235">module</text></g><g class="message" data-participant-1="AddHelper" data-participant-2="Cache"><polygon fill="#000000" points="432.4149,232.5461,438.5149,234.9861,432.4149,237.4261,434.8549,234.9861" style="stroke:#000000;stroke-width:0.61;"/><line style="stroke:#000000;stroke-width:0.61;" x1="294.2693" x2="436.0749" y1="234.9861" y2="234.9861"/><text fill="#000000" font-family="Verdana" font-size="7.93" lengthAdjust="spacing" textLength="104.7434" x="298.5393" y="232.1011">put(moduleCode, module)</text></g><g class="message" data-participant-1="Cache" data-participant-2="AddHelper"><polygon fill="#000000" points="300.9793,241.0861,294.8793,243.5261,300.9793,245.9661,298.5393,243.5261" style="stroke:#000000;stroke-width:0.61;"/><line style="stroke:#000000;stroke-width:0.61;stroke-dasharray:1.22,1.22;" x1="297.3193" x2="442.1749" y1="243.5261" y2="243.5261"/></g><line style="stroke:#000000;stroke-width:0.61;stroke-dasharray:1.22,1.22;" x1="15.25" x2="844.8902" y1="249.0161" y2="249.0161"/><text fill="#000000" font-family="Verdana" font-size="6.71" font-weight="bold" lengthAdjust="spacing" textLength="147.1122" x="18.3" y="255.7622">[module not found (Exception or null)]</text><g class="message" data-participant-1="Retriever" data-participant-2="AddHelper"><polygon fill="#000000" points="300.9793,268.6386,294.8793,271.0786,300.9793,273.5186,298.5393,271.0786" style="stroke:#000000;stroke-width:0.61;"/><line style="stroke:#000000;stroke-width:0.61;stroke-dasharray:1.22,1.22;" x1="297.3193" x2="647.2857" y1="271.0786" y2="271.0786"/><text fill="#000000" font-family="Verdana" font-size="7.93" lengthAdjust="spacing" textLength="62.2009" x="304.6393" y="268.1936">Exception / null</text></g><g class="message" data-participant-1="AddHelper" data-participant-2="AddHelper"><line style="stroke:#000000;stroke-width:0.61;stroke-dasharray:1.22,1.22;" x1="294.2693" x2="319.8893" y1="289.2562" y2="289.2562"/><line style="stroke:#000000;stroke-width:0.61;stroke-dasharray:1.22,1.22;" x1="319.8893" x2="319.8893" y1="289.2562" y2="297.1862"/><line style="stroke:#000000;stroke-width:0.61;stroke-dasharray:1.22,1.22;" x1="294.2693" x2="319.8893" y1="297.1862" y2="297.1862"/><line style="stroke:#000000;stroke-width:0.61;" x1="294.8793" x2="300.9793" y1="297.1862" y2="294.7462"/><line style="stroke:#000000;stroke-width:0.61;" x1="294.8793" x2="300.9793" y1="297.1862" y2="299.6262"/><text fill="#000000" font-family="Verdana" font-size="7.93" lengthAdjust="spacing" textLength="130.8256" x="298.5393" y="286.3712">throw ModuleNotFoundException</text></g><g class="message" data-participant-1="AddHelper" data-participant-2="AddCmd"><polygon fill="#000000" points="115.2608,312.9237,109.1608,315.3637,115.2608,317.8037,112.8208,315.3637" style="stroke:#000000;stroke-width:0.61;"/><line style="stroke:#000000;stroke-width:0.61;stroke-dasharray:1.22,1.22;" x1="111.6008" x2="287.5593" y1="315.3637" y2="315.3637"/><text fill="#000000" font-family="Verdana" font-size="7.93" lengthAdjust="spacing" textLength="105.208" x="118.9208" y="312.4788">ModuleNotFoundException</text></g><g class="message" data-participant-1="AddCmd" data-participant-2="AddCmd"><line style="stroke:#000000;stroke-width:0.61;stroke-dasharray:1.22,1.22;" x1="108.5508" x2="134.1708" y1="333.5413" y2="333.5413"/><line style="stroke:#000000;stroke-width:0.61;stroke-dasharray:1.22,1.22;" x1="134.1708" x2="134.1708" y1="333.5413" y2="341.4713"/><line style="stroke:#000000;stroke-width:0.61;stroke-dasharray:1.22,1.22;" x1="108.5508" x2="134.1708" y1="341.4713" y2="341.4713"/><line style="stroke:#000000;stroke-width:0.61;" x1="109.1608" x2="115.2608" y1="341.4713" y2="339.0313"/><line style="stroke:#000000;stroke-width:0.61;" x1="109.1608" x2="115.2608" y1="341.4713" y2="343.9113"/><text fill="#000000" font-family="Verdana" font-size="7.93" lengthAdjust="spacing" textLength="97.9092" x="112.8208" y="330.6563">catch ModHeroException</text></g><g class="message" data-participant-1="AddCmd" data-participant-2="ResultFail"><polygon fill="#000000" points="718.4576,357.2089,724.5576,359.6489,718.4576,362.0889,720.8976,359.6489" style="stroke:#000000;stroke-width:0.61;"/><line style="stroke:#000000;stroke-width:0.61;" x1="108.5508" x2="722.1176" y1="359.6489" y2="359.6489"/><text fill="#000000" font-family="Verdana" font-size="7.93" lengthAdjust="spacing" textLength="35.0732" x="112.8208" y="356.7639">&#171;create&#187;</text></g><rect fill="#FFFFFF" height="18.9189" rx="1.525" ry="1.525" style="stroke:#000000;stroke-width:0.61;" width="106.9126" x="725.7776" y="346.3513"/><text fill="#000000" font-family="Verdana" font-size="8.54" lengthAdjust="spacing" textLength="98.3726" x="730.0476" y="359.2072">result:CommandResult</text><g class="message" data-participant-1="AddCmd" data-participant-2="Caller"><polygon fill="#000000" points="41.3886,382.8378,35.2886,385.2778,41.3886,387.7178,38.9486,385.2778" style="stroke:#000000;stroke-width:0.61;"/><line style="stroke:#000000;stroke-width:0.61;stroke-dasharray:1.22,1.22;" x1="37.7286" x2="101.8408" y1="385.2778" y2="385.2778"/><text fill="#000000" font-family="Verdana" font-size="7.93" lengthAdjust="spacing" textLength="22.5587" x="45.0486" y="382.3929">result</text></g><g class="message" data-participant-1="AddHelper" data-participant-2="Timetable"><polygon fill="#000000" points="528.9468,409.5554,535.0468,411.9954,528.9468,414.4354,531.3868,411.9954" style="stroke:#000000;stroke-width:0.61;"/><line style="stroke:#000000;stroke-width:0.61;" x1="294.2693" x2="532.6068" y1="411.9954" y2="411.9954"/><text fill="#000000" font-family="Verdana" font-size="7.93" lengthAdjust="spacing" textLength="205.1849" x="298.5393" y="409.1104">addModule(year, term, module, exemptedModules)</text></g><path d="M545.34,419.9254 L545.34,444.9354 L722.85,444.9354 L722.85,426.0254 L716.75,419.9254 L545.34,419.9254" fill="#FFFFFF" style="stroke:#000000;stroke-width:0.61;"/><path d="M716.75,419.9254 L716.75,426.0254 L722.85,426.0254 L716.75,419.9254" fill="#FFFFFF" style="stroke:#000000;stroke-width:0.61;"/><text fill="#000000" font-family="Verdana" font-size="7.93" lengthAdjust="spacing" textLength="146.2597" x="549" y="430.948">Validates prerequisites and conflicts.</text><text fill="#000000" font-family="Verdana" font-size="7.93" lengthAdjust="spacing" textLength="164.7295" x="549" y="440.5856">Throws exception if requirements unmet.</text><path d="M15.25,452.6206 L54.3201,452.6206 L54.3201,457.3782 L48.2201,463.4782 L15.25,463.4782 L15.25,452.6206" fill="#FFFFFF" style="stroke:#000000;stroke-width:0.61;"/><rect fill="none" height="206.6634" style="stroke:#000000;stroke-width:0.61;" width="1080.0655" x="15.25" y="452.6206"/><text fill="#000000" font-family="Verdana" font-size="7.93" font-weight="bold" lengthAdjust="spacing" textLength="11.6201" x="24.4" y="461.2032">alt</text><text fill="#000000" font-family="Verdana" font-size="6.71" font-weight="bold" lengthAdjust="spacing" textLength="88.7437" x="63.4701" y="460.5866">[prerequisites not met]</text><g class="message" data-participant-1="Timetable" data-participant-2="AddHelper"><line style="stroke:#000000;stroke-width:0.61;" x1="294.8793" x2="300.9793" y1="476.7758" y2="474.3358"/><line style="stroke:#000000;stroke-width:0.61;" x1="294.8793" x2="300.9793" y1="476.7758" y2="479.2158"/><line style="stroke:#000000;stroke-width:0.61;stroke-dasharray:1.22,1.22;" x1="294.2693" x2="535.6568" y1="476.7758" y2="476.7758"/><text fill="#000000" font-family="Verdana" font-size="7.93" lengthAdjust="spacing" textLength="139.9444" x="304.6393" y="473.8908">throw PrerequisiteNotMetException</text></g><g class="message" data-participant-1="AddHelper" data-participant-2="AddCmd"><polygon fill="#000000" points="115.2608,492.5133,109.1608,494.9533,115.2608,497.3933,112.8208,494.9533" style="stroke:#000000;stroke-width:0.61;"/><line style="stroke:#000000;stroke-width:0.61;stroke-dasharray:1.22,1.22;" x1="111.6008" x2="287.5593" y1="494.9533" y2="494.9533"/><text fill="#000000" font-family="Verdana" font-size="7.93" lengthAdjust="spacing" textLength="114.3267" x="118.9208" y="492.0684">PrerequisiteNotMetException</text></g><g class="message" data-participant-1="AddCmd" data-participant-2="AddCmd"><line style="stroke:#000000;stroke-width:0.61;stroke-dasharray:1.22,1.22;" x1="108.5508" x2="134.1708" y1="513.1309" y2="513.1309"/><line style="stroke:#000000;stroke-width:0.61;stroke-dasharray:1.22,1.22;" x1="134.1708" x2="134.1708" y1="513.1309" y2="521.0609"/><line style="stroke:#000000;stroke-width:0.61;stroke-dasharray:1.22,1.22;" x1="108.5508" x2="134.1708" y1="521.0609" y2="521.0609"/><line style="stroke:#000000;stroke-width:0.61;" x1="109.1608" x2="115.2608" y1="521.0609" y2="518.6209"/><line style="stroke:#000000;stroke-width:0.61;" x1="109.1608" x2="115.2608" y1="521.0609" y2="523.5009"/><text fill="#000000" font-family="Verdana" font-size="7.93" lengthAdjust="spacing" textLength="97.9092" x="112.8208" y="510.2459">catch ModHeroException</text></g><g class="message" data-participant-1="AddCmd" data-participant-2="ResultPrereq"><polygon fill="#000000" points="843.6702,536.7985,849.7702,539.2385,843.6702,541.6785,846.1102,539.2385" style="stroke:#000000;stroke-width:0.61;"/><line style="stroke:#000000;stroke-width:0.61;" x1="108.5508" x2="847.3302" y1="539.2385" y2="539.2385"/><text fill="#000000" font-family="Verdana" font-size="7.93" lengthAdjust="spacing" textLength="35.0732" x="112.8208" y="536.3535">&#171;create&#187;</text></g><rect fill="#FFFFFF" height="18.9189" rx="1.525" ry="1.525" style="stroke:#000000;stroke-width:0.61;" width="106.9126" x="850.9902" y="525.9409"/><text fill="#000000" font-family="Verdana" font-size="8.54" lengthAdjust="spacing" textLength="98.3726" x="855.2602" y="538.7968">result:CommandResult</text><g class="message" data-participant-1="AddCmd" data-participant-2="Caller"><polygon fill="#000000" points="41.3886,562.4274,35.2886,564.8674,41.3886,567.3074,38.9486,564.8674" style="stroke:#000000;stroke-width:0.61;"/><line style="stroke:#000000;stroke-width:0.61;stroke-dasharray:1.22,1.22;" x1="37.7286" x2="101.8408" y1="564.8674" y2="564.8674"/><text fill="#000000" font-family="Verdana" font-size="7.93" lengthAdjust="spacing" textLength="22.5587" x="45.0486" y="561.9825">result</text></g><line style="stroke:#000000;stroke-width:0.61;stroke-dasharray:1.22,1.22;" x1="15.25" x2="1095.3155" y1="570.3574" y2="570.3574"/><text fill="#000000" font-family="Verdana" font-size="6.71" font-weight="bold" lengthAdjust="spacing" textLength="36.3677" x="18.3" y="577.1035">[success]</text><g class="message" data-participant-1="Timetable" data-participant-2="AddHelper"><polygon fill="#000000" points="300.9793,589.9799,294.8793,592.4199,300.9793,594.8599,298.5393,592.4199" style="stroke:#000000;stroke-width:0.61;"/><line style="stroke:#000000;stroke-width:0.61;stroke-dasharray:1.22,1.22;" x1="297.3193" x2="538.7068" y1="592.4199" y2="592.4199"/><text fill="#000000" font-family="Verdana" font-size="7.93" lengthAdjust="spacing" textLength="16.6228" x="304.6393" y="589.5349">void</text></g><g class="message" data-participant-1="AddHelper" data-participant-2="AddCmd"><polygon fill="#000000" points="115.2608,608.1575,109.1608,610.5975,115.2608,613.0375,112.8208,610.5975" style="stroke:#000000;stroke-width:0.61;"/><line style="stroke:#000000;stroke-width:0.61;stroke-dasharray:1.22,1.22;" x1="111.6008" x2="287.5593" y1="610.5975" y2="610.5975"/><text fill="#000000" font-family="Verdana" font-size="7.93" lengthAdjust="spacing" textLength="16.6228" x="118.9208" y="607.7125">void</text></g><g class="message" data-participant-1="AddCmd" data-participant-2="ResultSuccess"><polygon fill="#000000" points="968.8828,626.3351,974.9828,628.7751,968.8828,631.2151,971.3228,628.7751" style="stroke:#000000;stroke-width:0.61;"/><line style="stroke:#000000;stroke-width:0.61;" x1="108.5508" x2="972.5428" y1="628.7751" y2="628.7751"/><text fill="#000000" font-family="Verdana" font-size="7.93" lengthAdjust="spacing" textLength="35.0732" x="112.8208" y="625.8901">&#171;create&#187;</text></g><rect fill="#FFFFFF" height="18.9189" rx="1.525" ry="1.525" style="stroke:#000000;stroke-width:0.61;" width="106.9126" x="976.2028" y="615.4775"/><text fill="#000000" font-family="Verdana" font-size="8.54" lengthAdjust="spacing" textLength="98.3726" x="980.4728" y="628.3334">result:CommandResult</text><g class="message" data-participant-1="AddCmd" data-participant-2="Caller"><polygon fill="#000000" points="41.3886,651.964,35.2886,654.404,41.3886,656.844,38.9486,654.404" style="stroke:#000000;stroke-width:0.61;"/><line style="stroke:#000000;stroke-width:0.61;stroke-dasharray:1.22,1.22;" x1="37.7286" x2="101.8408" y1="654.404" y2="654.404"/><text fill="#000000" font-family="Verdana" font-size="7.93" lengthAdjust="spacing" textLength="22.5587" x="45.0486" y="651.519">result</text></g><g class="message" data-participant-1="AddHelper" data-participant-2="Retriever"><polygon fill="#000000" points="640.5757,674.4116,646.6757,676.8516,640.5757,679.2916,643.0157,676.8516" style="stroke:#000000;stroke-width:0.61;"/><line style="stroke:#000000;stroke-width:0.61;" x1="294.2693" x2="644.2357" y1="676.8516" y2="676.8516"/><text fill="#000000" font-family="Verdana" font-size="7.93" lengthAdjust="spacing" textLength="40.0333" x="298.5393" y="673.9666">&#171;destroy&#187;</text></g><line style="stroke:#000000;stroke-width:0.61;stroke-dasharray:0.61,0.61;" x1="642.4057" x2="653.3857" y1="671.3616" y2="682.3416"/><line style="stroke:#000000;stroke-width:0.61;stroke-dasharray:0.61,0.61;" x1="642.4057" x2="653.3857" y1="682.3416" y2="671.3616"/><!--SRC=[dLRRJXin47ttLmpmm4L9-XwXI2rt2H02LAcFnfua5jxrrlPIKDL_xzZUNU-I3Mg952cspvdBySmuEtwD1KAbkIhPFaodKxZZrYkXAbvw5pOO5zvOs1LSQxIxm1sSn9-ioaWwBkJygvGdfYXuAICiB0i9UzTgjVON5h4SKZ9yngMyCRBMU73OKYzHLsYtioc6H76dtFFv3Q-QsCGQXqZlvu-gGC-VD4PCjsgiVzCrDjcV6kzHWbPBrAf4SFwDO446zwnACikBVFYR0NsSjzpZwWravB8_ZQbpRNv5Pf8BfejMaJdWAuhQKxP1NVL2_EQCDP04RZIOGzR7jx5FOAZ016QpsT1UeZEAvnwzLVX2jfG3OP679Ba7kdwAdyG2iuoBpX6GcxMH4o8_uT9OZCSYg0lq5Sypbkp0G6lREfedCvtZA7mEO-zErmNBALA- -V3eY58-Faxs5misnCKR9i0A_K4HdPmOYRtCKmaasFITa8a0Nw2ijMOItv6OgNoBAOq7LO8sLFaWIU5usrj2Zk4qLyG5bp-Gsmdqmmlapbj7P6bVTrwNfYvbt0oVx60yaGuugb1LznLgmpdiIE-IRxT7bElEDXGBcwWTzbMBES31sQl0oYjJ0isFeFVXF-ILISqTZNZEwesaFrqC3VgrfJvCLtDh_7c8hNCoRY3twJPQdnVRjV6QM89xiGxSIxHcqzTutxXQ-tap3-_ZgccPyFESAxtXSz4xtEYPpG2RiKsmv2mdaURLpTN3mzNj1LnVtPx5kHMlbeenV1Ca3qwQ4zGPAoKYSb1z6TIVMs-n8JpQegt3IPY2HKMJg9bYlHRkR32g9mGRfdGOKNaVu3lNYjeI7LGMBVwibLDXHVg1CELIA-7TZ82FeG8SUMihIoqXuYszVU6LgqkoEWjvXl955jfnQ3DKDM6Y93c_BRLsrwDIwToW7zR0bbhxYCO-KskVgBCK0nkhidGqMcSVrLYS3QuM0ftRb6-WtejHQVBrMZrV-4VIHUPdStxe1VS-wURi_xDkPlW-d2BzFp1lyVNi7iVsIUqILUKg8jPvscvvQ7PsOYGocQLG_W80]--></g></svg>